<?xml version="1.0" encoding="UTF-8"?><svg id="Mejoravit" xmlns="http://www.w3.org/2000/svg" viewBox="0 0 42 12.728"><path d="M39.652,12.048c-3.827-.238-7.449-.35-11.231-.33-4.571.024-8.942.49-13.512,1.011,8.629-2.286,17.7-2.335,26.406-.629l-1.664-.051Z" fill="#ac3150"/><circle cx="36.792" cy="3.593" r=".627" fill="#ac3150"/><path d="M37.984,9.22l-1.719.828c-.252.122-.801.079-1.052-.099-1.218-.864.22-5.129.912-4.582.111.088.217.416.199.561l-.358,2.891c1.144.201,1.989-.577,2.086-1.628l.171-1.852-.934.214c-.134.031-.382-.272-.379-.412s.136-.451.269-.532l1.416-.868.619-2.447c.203-.803.642-1.484,1.154-1.246.157.073.273.454.232.659l-.552,2.79,1.559.154c.108.011.333.251.382.343.059.11-.126.434-.251.467l-1.439.376c-.215.056-.663.282-.692.488-.185,1.295-.297,2.359-.273,3.768,1.203-.869,1.696-2.575,2.291-2.059.141.122.194.487.105.646-.488.876-.917,1.628-1.637,2.288-.291.267-.884.681-1.246.528-.468-.198-.608-.694-.863-1.275Z" fill="#ac3150"/><path d="M30.817,9.606c-.257-1.643.309-2.787-.032-4.299-.024-.108.006-.326.057-.4.065-.093.362-.171.477-.121.32.139.601.655.62,1.027l.122,2.414,2.913-4.713c.178-.052.426-.112.556-.11.156.002.236.404.25.624l-2.566,5.1c-.466.572-.84,1.152-1.662,1.243-.312.034-.679-.416-.734-.765Z" fill="#ac3150"/><path d="M25.769,9.895c-.492-.322-.746-.811-.693-1.305.147-1.36,1.819-1.418,3.327-1.716.136-.083.185-.509.111-.682-.076-.177-.363-.393-.598-.451-1.164-.286-1.417,1.243-2.523.427.131-.271.275-.583.557-.813.989-.803,3.173-.682,3.695.636.437,1.227-.044,2.704.193,3.973-.232.142-.514.217-.726.221-.263.005-.48-.159-.603-.551-.705.623-1.829.857-2.74.261ZM26.75,9.247c.539.229,1.053.039,1.38-.254.381-.341.537-.766.377-1.366l-1.735.313c-.208.037-.49.438-.501.636s.237.566.48.67Z"/><path d="M25.16,6.074l-1.108.013c-.531.006-.922.312-.934.886l-.068,3.046c-.393.165-.748.158-1.204.034l-.107-4.724c-.005-.198.397-.447.576-.42l.543.082c.126.019.192.276.261.472.578-.429,1.226-.608,1.989-.459l.053,1.069Z"/><path d="M19.57,10.063c-.816.26-2.031.28-2.682-.361-.951-.937-1.082-2.597-.496-3.749.456-.896,1.51-1.146,2.429-1.082.809.057,1.566.361,1.95,1.084.662,1.247.508,3.564-1.201,4.109ZM19.496,8.924c.486-.893.319-1.877.056-2.703-.551-.565-1.399-.576-1.975-.055-.153.886-.361,1.868.051,2.709.284.58,1.558.618,1.868.05Z"/><circle cx="14.644" cy="3.591" r=".645"/><path d="M12.969,11.896c-.252-.192-.089-.82.159-.806.538.031.957-.256.958-.771l.01-5.313c.437-.036.782-.038,1.205-.009l.022,5.334c.002.547-.307,1.152-.644,1.392-.491.349-1.228.539-1.71.173Z"/><path d="M11.858,8.908c.306-.292.997-.235,1.387-.051-.412.883-1.262,1.295-2.185,1.376-1.545.136-2.752-1.03-2.68-2.594.038-.83.163-1.752.867-2.303.934-.731,2.47-.65,3.347.145.677.614.842,1.578.697,2.414l-3.569-.024c-.138.611.177,1.149.641,1.376.538.263,1.045.09,1.495-.34ZM11.96,7.055c.137-.879-.502-1.369-1.196-1.327-.686.041-1.112.658-.982,1.349l2.178-.022Z"/><path d="M4.643,6.438c-.173,1.919.093,3.525-.599,3.757-.2.067-.752-.126-.755-.343l-.039-2.921c-.007-.552-.307-.968-.818-1.042-.425-.062-1.139.151-1.151.726l-.073,3.454c-.422.051-.773.05-1.208-.017l.002-4.937c.366-.312,1.038-.291,1.301.233.918-.716,2.141-.615,2.958.278.397-.378.839-.646,1.371-.729,1.109-.173,2.132.624,2.135,1.782l.008,3.281c-.318.21-.788.2-1.197.065l-.069-3.183c-.01-.47-.408-.876-.797-.972-.316-.079-1.032.153-1.069.567Z"/></svg>