<?xml version="1.0" encoding="UTF-8"?>
<svg id="Capa_1" xmlns="http://www.w3.org/2000/svg" version="1.1" viewBox="0 0 45 42.95">
  <!-- Generator: Adobe Illustrator 30.5.1, SVG Export Plug-In . SVG Version: 2.1.4 Build 3)  -->
  <defs>
    <style>
      .st0 {
        fill: #ac2a31;
      }
    </style>
  </defs>
  <path class="st0" d="M15.55,42.95l-3.89-6.55-7.36-1.64.72-7.57L0,21.48l5.01-5.73-.72-7.57,7.36-1.64L15.55,0l6.95,2.97,6.95-2.97,3.89,6.55,7.36,1.64-.72,7.57,5.01,5.73-5.01,5.73.72,7.57-7.36,1.64-3.89,6.55-6.95-2.97-6.95,2.97ZM17.28,37.74l5.22-2.25,5.32,2.25,2.86-4.91,5.62-1.33-.51-5.73,3.78-4.3-3.78-4.4.51-5.73-5.62-1.23-2.97-4.91-5.22,2.25-5.32-2.25-2.86,4.91-5.62,1.23.51,5.73-3.78,4.4,3.78,4.3-.51,5.83,5.62,1.23,2.97,4.91ZM20.35,28.74l11.56-11.56-2.86-2.97-8.69,8.69-4.4-4.3-2.86,2.86,7.26,7.26Z"/>
</svg>