<?xml version="1.0" encoding="UTF-8"?>
<svg id="Capa_1" xmlns="http://www.w3.org/2000/svg" version="1.1" viewBox="0 0 42 60">
  <!-- Generator: Adobe Illustrator 30.5.1, SVG Export Plug-In . SVG Version: 2.1.4 Build 3)  -->
  <defs>
    <style>
      .st0 {
        fill: #ac2a31;
      }
    </style>
  </defs>
  <path class="st0" d="M21,12c-1.65,0-3.06-.59-4.24-1.76-1.18-1.18-1.76-2.59-1.76-4.24s.59-3.06,1.76-4.24c1.18-1.18,2.59-1.76,4.24-1.76s3.06.59,4.24,1.76c1.18,1.18,1.76,2.59,1.76,4.24s-.59,3.06-1.76,4.24c-1.18,1.18-2.59,1.76-4.24,1.76ZM36,60v-15h-15c-1.65,0-3.06-.59-4.24-1.76-1.18-1.18-1.76-2.59-1.76-4.24v-18c0-1.65.59-3.06,1.76-4.24,1.18-1.18,2.59-1.76,4.24-1.76,1.2,0,2.24.26,3.11.79.88.53,1.81,1.36,2.81,2.51,2.75,3.3,5.24,5.56,7.46,6.79,2.23,1.22,4.76,1.86,7.61,1.91v6c-2.65,0-5.32-.58-8.03-1.72-2.7-1.15-5.03-2.53-6.97-4.12v10.35h9c1.65,0,3.06.59,4.24,1.76,1.18,1.18,1.76,2.59,1.76,4.24v16.5h-6ZM15,60c-4.15,0-7.69-1.46-10.61-4.39-2.92-2.93-4.39-6.46-4.39-10.61,0-3.6,1.14-6.77,3.41-9.53,2.27-2.75,5.14-4.48,8.59-5.17v6.15c-1.75.7-3.19,1.81-4.31,3.34s-1.69,3.26-1.69,5.21c0,2.5.88,4.63,2.62,6.38s3.88,2.62,6.38,2.62c1.95,0,3.69-.56,5.21-1.69,1.52-1.12,2.64-2.56,3.34-4.31h6.15c-.7,3.45-2.42,6.31-5.17,8.59-2.75,2.27-5.93,3.41-9.53,3.41Z"/>
</svg>