<?xml version="1.0" encoding="UTF-8"?>
<svg id="Capa_1" xmlns="http://www.w3.org/2000/svg" version="1.1" viewBox="0 0 42 50.37">
  <!-- Generator: Adobe Illustrator 30.5.1, SVG Export Plug-In . SVG Version: 2.1.4 Build 3)  -->
  <defs>
    <style>
      .st0 {
        fill: #ac2a31;
      }
    </style>
  </defs>
  <path class="st0" d="M39.75,17.91l-9.08-9.08-5.48,5.41-5.48-5.41,7.28-7.34c.52-.52,1.1-.89,1.74-1.13.64-.24,1.29-.35,1.93-.35.69,0,1.34.12,1.96.35.62.24,1.17.61,1.64,1.13l5.48,5.48c.77.73,1.34,1.58,1.71,2.54.37.97.55,1.94.55,2.93s-.18,1.95-.55,2.9c-.37.94-.93,1.8-1.71,2.58ZM4.25,29.76c-.77-.77-1.16-1.69-1.16-2.74s.39-1.96,1.16-2.74l6.31-6.38,5.48,5.48-6.38,6.38c-.73.77-1.62,1.16-2.67,1.16s-1.96-.39-2.74-1.16ZM1.48,48.89c-.47-.52-.84-1.08-1.1-1.71-.26-.62-.39-1.28-.39-1.96s.12-1.34.35-1.96c.24-.62.61-1.19,1.13-1.71l18.23-18.17-8.18-8.25c-.77-.73-1.16-1.62-1.16-2.67s.39-1.96,1.16-2.74c.73-.77,1.63-1.16,2.71-1.16s2,.39,2.77,1.16l8.18,8.18,3.67-3.67,7.21,7.34c.52.52.77,1.12.77,1.8s-.26,1.29-.77,1.8c-.52.52-1.12.77-1.8.77s-1.29-.26-1.8-.77l-23.71,23.71c-.52.52-1.08.89-1.71,1.13-.62.24-1.26.35-1.9.35s-1.29-.13-1.93-.39-1.22-.62-1.74-1.1Z"/>
</svg>