<?xml version="1.0" encoding="UTF-8"?>
<svg id="Capa_1" xmlns="http://www.w3.org/2000/svg" version="1.1" viewBox="0 0 45 56.25">
  <!-- Generator: Adobe Illustrator 30.5.1, SVG Export Plug-In . SVG Version: 2.1.4 Build 3)  -->
  <defs>
    <style>
      .st0 {
        fill: #465280;
      }
    </style>
  </defs>
  <path class="st0" d="M22.5,56.25c-6.52-1.64-11.89-5.38-16.14-11.21C2.12,39.2,0,32.72,0,25.59V8.44L22.5,0l22.5,8.44v17.16c0,7.13-2.12,13.61-6.36,19.44-4.24,5.84-9.62,9.57-16.14,11.21ZM22.5,50.34c4.88-1.55,8.91-4.64,12.09-9.28,3.19-4.64,4.78-9.8,4.78-15.47v-13.29l-16.88-6.33L5.62,12.3v13.29c0,5.67,1.59,10.83,4.78,15.47,3.19,4.64,7.22,7.73,12.09,9.28Z"/>
</svg>