<?xml version="1.0" encoding="UTF-8"?>
<svg id="Capa_1" xmlns="http://www.w3.org/2000/svg" version="1.1" viewBox="0 0 42 41.99">
  <!-- Generator: Adobe Illustrator 30.5.1, SVG Export Plug-In . SVG Version: 2.1.4 Build 3)  -->
  <defs>
    <style>
      .st0 {
        fill: #ac2a31;
      }
    </style>
  </defs>
  <path class="st0" d="M5.93,36.06c-1.85-1.85-3.31-4-4.36-6.43-1.05-2.43-1.58-4.94-1.58-7.54s.49-5.16,1.48-7.69c.99-2.53,2.59-4.91,4.82-7.14,1.44-1.44,3.22-2.68,5.34-3.71,2.12-1.03,4.63-1.84,7.54-2.44C22.09.53,25.4.17,29.13.04c3.73-.12,7.9.02,12.51.43.33,4.37.43,8.38.31,12.05-.12,3.67-.46,6.97-1.02,9.92-.56,2.94-1.34,5.52-2.35,7.72-1.01,2.2-2.26,4.05-3.74,5.53-2.18,2.18-4.5,3.78-6.95,4.79-2.45,1.01-4.95,1.51-7.51,1.51s-5.29-.53-7.85-1.58c-2.55-1.05-4.76-2.5-6.61-4.36ZM12.85,35.07c1.19.7,2.42,1.2,3.68,1.51s2.54.46,3.86.46c1.89,0,3.77-.38,5.62-1.14s3.62-1.99,5.31-3.68c.74-.74,1.49-1.78,2.26-3.12.76-1.34,1.42-3.09,1.98-5.25.56-2.16.98-4.78,1.27-7.85.29-3.07.33-6.72.12-10.97-2.02-.08-4.29-.11-6.83-.09-2.53.02-5.06.22-7.57.59-2.51.37-4.9.97-7.17,1.79-2.27.82-4.12,1.96-5.56,3.4-1.85,1.85-3.13,3.69-3.83,5.5-.7,1.81-1.05,3.56-1.05,5.25,0,2.43.46,4.56,1.39,6.39.93,1.83,1.74,3.12,2.44,3.86,1.73-3.29,4.02-6.46,6.86-9.48,2.84-3.03,6.16-5.51,9.95-7.44-2.97,2.59-5.55,5.53-7.75,8.8-2.2,3.27-3.86,7.09-4.97,11.46Z"/>
</svg>