<?xml version="1.0" encoding="UTF-8"?>
<svg id="Capa_1" xmlns="http://www.w3.org/2000/svg" version="1.1" viewBox="0 0 45 36">
  <!-- Generator: Adobe Illustrator 30.5.1, SVG Export Plug-In . SVG Version: 2.1.4 Build 3)  -->
  <defs>
    <style>
      .st0 {
        fill: #ac2a31;
      }
    </style>
  </defs>
  <path class="st0" d="M0,36V13.5c0-1.24.44-2.3,1.32-3.18.88-.88,1.94-1.32,3.18-1.32h6.75v-4.5c0-1.24.44-2.3,1.32-3.18.88-.88,1.94-1.32,3.18-1.32h13.5c1.24,0,2.3.44,3.18,1.32.88.88,1.32,1.94,1.32,3.18v4.5h6.75c1.24,0,2.3.44,3.18,1.32.88.88,1.32,1.94,1.32,3.18v22.5H0ZM13.5,24.75v2.25h-4.5v-2.25h-4.5v6.75h36v-6.75h-4.5v2.25h-4.5v-2.25H13.5ZM4.5,13.5v6.75h4.5v-2.25h4.5v2.25h18v-2.25h4.5v2.25h4.5v-6.75H4.5ZM15.75,9h13.5v-4.5h-13.5v4.5Z"/>
</svg>