<?xml version="1.0" encoding="UTF-8"?>
<svg id="Capa_1" xmlns="http://www.w3.org/2000/svg" version="1.1" viewBox="0 0 45 50">
  <!-- Generator: Adobe Illustrator 30.5.1, SVG Export Plug-In . SVG Version: 2.1.4 Build 3)  -->
  <defs>
    <style>
      .st0 {
        fill: #006954;
      }
    </style>
  </defs>
  <path class="st0" d="M19,37.63l17.62-17.63-3.5-3.5-14.13,14.13-7.12-7.13-3.5,3.5,10.62,10.62ZM5,50c-1.37,0-2.55-.49-3.53-1.47-.98-.98-1.47-2.16-1.47-3.53V10c0-1.37.49-2.55,1.47-3.53.98-.98,2.16-1.47,3.53-1.47h10.5c.54-1.5,1.45-2.71,2.72-3.62,1.27-.92,2.7-1.38,4.28-1.38s3.01.46,4.28,1.38c1.27.92,2.18,2.12,2.72,3.62h10.5c1.37,0,2.55.49,3.53,1.47.98.98,1.47,2.16,1.47,3.53v35c0,1.37-.49,2.55-1.47,3.53-.98.98-2.16,1.47-3.53,1.47H5ZM5,45h35V10H5v35ZM22.5,8.12c.54,0,.99-.18,1.34-.53.35-.35.53-.8.53-1.34s-.18-.99-.53-1.34c-.35-.35-.8-.53-1.34-.53s-.99.18-1.34.53c-.35.35-.53.8-.53,1.34s.18.99.53,1.34c.35.35.8.53,1.34.53ZM5,45V10v35Z"/>
</svg>