<?xml version="1.0" encoding="UTF-8"?>
<svg id="Capa_1" xmlns="http://www.w3.org/2000/svg" version="1.1" viewBox="0 0 45 56.25">
  <!-- Generator: Adobe Illustrator 30.5.1, SVG Export Plug-In . SVG Version: 2.1.4 Build 3)  -->
  <defs>
    <style>
      .st0 {
        fill: #8a96c9;
      }
    </style>
  </defs>
  <path class="st0" d="M11.25,45h22.5v-5.62H11.25v5.62ZM11.25,33.75h22.5v-5.62H11.25v5.62ZM5.62,56.25c-1.55,0-2.87-.55-3.97-1.65-1.1-1.1-1.65-2.43-1.65-3.97V5.62c0-1.55.55-2.87,1.65-3.97,1.1-1.1,2.43-1.65,3.97-1.65h22.5l16.88,16.88v33.75c0,1.55-.55,2.87-1.65,3.97-1.1,1.1-2.43,1.65-3.97,1.65H5.62ZM25.31,19.69V5.62H5.62v45h33.75v-30.94h-14.06ZM5.62,5.62v14.06V5.62v45V5.62Z"/>
</svg>