<?xml version="1.0" encoding="UTF-8"?>
<svg id="Capa_1" xmlns="http://www.w3.org/2000/svg" version="1.1" viewBox="0 0 45 59.06">
  <!-- Generator: Adobe Illustrator 30.5.1, SVG Export Plug-In . SVG Version: 2.1.4 Build 3)  -->
  <defs>
    <style>
      .st0 {
        fill: #006954;
      }
    </style>
  </defs>
  <path class="st0" d="M5.63,59.06c-1.55,0-2.87-.55-3.97-1.65-1.1-1.1-1.65-2.43-1.65-3.97v-28.12c0-1.55.55-2.87,1.65-3.97,1.1-1.1,2.43-1.65,3.97-1.65h2.81v-5.62c0-3.89,1.37-7.21,4.11-9.95S18.61,0,22.5,0s7.21,1.37,9.95,4.11c2.74,2.74,4.11,6.06,4.11,9.95v5.62h2.81c1.55,0,2.87.55,3.97,1.65,1.1,1.1,1.65,2.43,1.65,3.97v28.12c0,1.55-.55,2.87-1.65,3.97-1.1,1.1-2.43,1.65-3.97,1.65H5.63ZM5.63,53.44h33.75v-28.12H5.63v28.12ZM22.5,45c1.55,0,2.87-.55,3.97-1.65,1.1-1.1,1.65-2.43,1.65-3.97s-.55-2.87-1.65-3.97c-1.1-1.1-2.43-1.65-3.97-1.65s-2.87.55-3.97,1.65c-1.1,1.1-1.65,2.43-1.65,3.97s.55,2.87,1.65,3.97c1.1,1.1,2.43,1.65,3.97,1.65ZM14.06,19.69h16.88v-5.62c0-2.34-.82-4.34-2.46-5.98-1.64-1.64-3.63-2.46-5.98-2.46s-4.34.82-5.98,2.46c-1.64,1.64-2.46,3.63-2.46,5.98v5.62ZM5.63,53.44v-28.12,28.12Z"/>
</svg>