<?xml version="1.0" encoding="UTF-8"?>
<svg id="Capa_1" xmlns="http://www.w3.org/2000/svg" version="1.1" viewBox="0 0 45 36.9">
  <!-- Generator: Adobe Illustrator 30.5.1, SVG Export Plug-In . SVG Version: 2.1.4 Build 3)  -->
  <defs>
    <style>
      .st0 {
        fill: #ac2a31;
      }
    </style>
  </defs>
  <path class="st0" d="M0,36v-6.3c0-1.24.32-2.4.96-3.49.64-1.09,1.52-1.91,2.64-2.47,1.91-.97,4.07-1.8,6.47-2.48s5.04-1.01,7.93-1.01c1.12,0,2.22.06,3.29.17,1.07.11,2.11.28,3.12.51l-3.94,3.94c-.41-.07-.82-.11-1.21-.11h-1.27c-2.66,0-5.05.32-7.17.96-2.12.64-3.85,1.33-5.2,2.08-.34.19-.61.45-.82.79-.21.34-.31.71-.31,1.12v1.8h14.06l4.5,4.5H0ZM30.49,36.9l-7.76-7.76,3.15-3.15,4.61,4.61,11.36-11.36,3.15,3.15-14.51,14.51ZM18,18c-2.47,0-4.59-.88-6.36-2.64s-2.64-3.88-2.64-6.36.88-4.59,2.64-6.36c1.76-1.76,3.88-2.64,6.36-2.64s4.59.88,6.36,2.64c1.76,1.76,2.64,3.88,2.64,6.36s-.88,4.59-2.64,6.36c-1.76,1.76-3.88,2.64-6.36,2.64ZM18,13.5c1.24,0,2.3-.44,3.18-1.32.88-.88,1.32-1.94,1.32-3.18s-.44-2.3-1.32-3.18c-.88-.88-1.94-1.32-3.18-1.32s-2.3.44-3.18,1.32c-.88.88-1.32,1.94-1.32,3.18s.44,2.3,1.32,3.18c.88.88,1.94,1.32,3.18,1.32Z"/>
</svg>